# Blender 3.4.0
# www.blender.org
mtllib disc.mtl
o CD_Disc.001
v 0.000000 0.000000 -1.030000
v -0.352281 0.000000 -0.967883
v -0.662071 0.000000 -0.789026
v -0.892006 0.000000 -0.515000
v -1.014352 0.000000 -0.178858
v -1.014352 0.000000 0.178858
v -0.892006 0.000000 0.515000
v -0.662071 0.000000 0.789026
v -0.352281 0.000000 0.967883
v 0.000000 0.000000 1.030000
v 0.352281 0.000000 0.967883
v 0.662071 0.000000 0.789026
v 0.892006 0.000000 0.515000
v 1.014352 0.000000 0.178858
v 1.014352 0.000000 -0.178858
v 0.892006 0.000000 -0.515000
v 0.662071 0.000000 -0.789026
v 0.352281 0.000000 -0.967883
v 0.000000 0.000000 -0.440000
v -0.150489 0.000000 -0.413465
v -0.282827 0.000000 -0.337060
v -0.381051 0.000000 -0.220000
v -0.433315 0.000000 -0.076405
v -0.433315 0.000000 0.076405
v -0.381051 0.000000 0.220000
v -0.282827 0.000000 0.337060
v -0.150489 0.000000 0.413465
v 0.000000 0.000000 0.440000
v 0.150489 0.000000 0.413465
v 0.282827 0.000000 0.337060
v 0.381051 0.000000 0.220000
v 0.433315 0.000000 0.076405
v 0.433315 0.000000 -0.076405
v 0.381051 0.000000 -0.220000
v 0.282827 0.000000 -0.337060
v 0.150489 0.000000 -0.413465
v -0.251385 0.000000 -0.690674
v -0.472449 0.000000 -0.563043
v -0.636529 0.000000 -0.367500
v -0.723834 0.000000 -0.127631
v -0.723834 0.000000 0.127631
v -0.636529 0.000000 0.367500
v -0.472449 0.000000 0.563043
v -0.251385 0.000000 0.690674
v 0.000000 0.000000 0.735000
v 0.251385 0.000000 0.690674
v 0.472449 0.000000 0.563043
v 0.636529 0.000000 0.367500
v 0.723834 0.000000 0.127631
v 0.723834 0.000000 -0.127631
v 0.636529 0.000000 -0.367500
v 0.472449 0.000000 -0.563043
v 0.251385 0.000000 -0.690674
v 0.000000 0.000000 -0.735000
vn -0.0000 -1.0000 -0.0000
s 0
f 37//1 3//1 2//1
f 39//1 3//1 38//1
f 40//1 4//1 39//1
f 40//1 6//1 5//1
f 41//1 7//1 6//1
f 43//1 7//1 42//1
f 44//1 8//1 43//1
f 45//1 9//1 44//1
f 46//1 10//1 45//1
f 46//1 12//1 11//1
f 48//1 12//1 47//1
f 49//1 13//1 48//1
f 49//1 15//1 14//1
f 50//1 16//1 15//1
f 52//1 16//1 51//1
f 53//1 17//1 52//1
f 54//1 18//1 53//1
f 37//1 1//1 54//1
f 20//1 54//1 19//1
f 19//1 53//1 36//1
f 36//1 52//1 35//1
f 35//1 51//1 34//1
f 34//1 50//1 33//1
f 33//1 49//1 32//1
f 31//1 49//1 48//1
f 31//1 47//1 30//1
f 29//1 47//1 46//1
f 29//1 45//1 28//1
f 28//1 44//1 27//1
f 27//1 43//1 26//1
f 26//1 42//1 25//1
f 25//1 41//1 24//1
f 24//1 40//1 23//1
f 22//1 40//1 39//1
f 22//1 38//1 21//1
f 20//1 38//1 37//1
f 37//1 38//1 3//1
f 39//1 4//1 3//1
f 40//1 5//1 4//1
f 40//1 41//1 6//1
f 41//1 42//1 7//1
f 43//1 8//1 7//1
f 44//1 9//1 8//1
f 45//1 10//1 9//1
f 46//1 11//1 10//1
f 46//1 47//1 12//1
f 48//1 13//1 12//1
f 49//1 14//1 13//1
f 49//1 50//1 15//1
f 50//1 51//1 16//1
f 52//1 17//1 16//1
f 53//1 18//1 17//1
f 54//1 1//1 18//1
f 37//1 2//1 1//1
f 20//1 37//1 54//1
f 19//1 54//1 53//1
f 36//1 53//1 52//1
f 35//1 52//1 51//1
f 34//1 51//1 50//1
f 33//1 50//1 49//1
f 31//1 32//1 49//1
f 31//1 48//1 47//1
f 29//1 30//1 47//1
f 29//1 46//1 45//1
f 28//1 45//1 44//1
f 27//1 44//1 43//1
f 26//1 43//1 42//1
f 25//1 42//1 41//1
f 24//1 41//1 40//1
f 22//1 23//1 40//1
f 22//1 39//1 38//1
f 20//1 21//1 38//1
